{
  "accessors": [
    {
      "bufferView": 2,
      "componentType": 5126,
      "count": 9206,
      "max": [
        112.23895263671875,
        53.811363220214844,
        180.1543731689453
      ],
      "min": [
        -101.68675994873047,
        -118.13262939453125,
        9.9999998245167e-15
      ],
      "type": "VEC3"
    },
    {
      "bufferView": 2,
      "byteOffset": 110472,
      "componentType": 5126,
      "count": 9206,
      "max": [
        0.999289333820343,
        1.0,
        0.9975295662879944
      ],
      "min": [
        -0.9980242252349854,
        -1.0,
        -0.999989926815033
      ],
      "type": "VEC3"
    },
    {
      "bufferView": 1,
      "componentType": 5126,
      "count": 9206,
      "max": [
        0.7683489918708801,
        0.6390200257301331
      ],
      "min": [
        0.03282700106501579,
        0.046658992767333984
      ],
      "type": "VEC2"
    },
    {
      "bufferView": 0,
      "componentType": 5125,
      "count": 9210,
      "type": "SCALAR"
    }
  ],
  "asset": {
    "extras": {
      "author": "veryfAtfr0G (https://sketchfab.com/veryfAtfr0G)",
      "license": "CC-BY-4.0 (http://creativecommons.org/licenses/by/4.0/)",
      "source": "https://sketchfab.com/3d-models/the-brain-007847f9d2b5481a882d8996c0fd1847",
      "title": "\"the brain\""
    },
    "generator": "Sketchfab-16.73.0",
    "version": "2.0"
  },
  "bufferViews": [
    {
      "buffer": 0,
      "byteLength": 36840,
      "name": "floatBufferViews",
      "target": 34963
    },
    {
      "buffer": 0,
      "byteLength": 73648,
      "byteOffset": 36840,
      "byteStride": 8,
      "name": "floatBufferViews",
      "target": 34962
    },
    {
      "buffer": 0,
      "byteLength": 220944,
      "byteOffset": 110488,
      "byteStride": 12,
      "name": "floatBufferViews",
      "target": 34962
    }
  ],
  "buffers": [
    {
      "byteLength": 331432,
      "uri": "scene.bin"
    }
  ],
  "extensionsUsed": [
    "KHR_materials_specular"
  ],
  "materials": [
    {
      "extensions": {
        "KHR_materials_specular": {
          "specularColorFactor": [
            1.0,
            1.0,
            1.0
          ],
          "specularFactor": 0.46171569284782576
        }
      },
      "name": "Brain_pink",
      "pbrMetallicRoughness": {
        "baseColorFactor": [
          0.732532985489547,
          0.2689564611605731,
          0.3559079946482989,
          1.0
        ],
        "metallicFactor": 0.0,
        "roughnessFactor": 0.24838170935378087
      }
    }
  ],
  "meshes": [
    {
      "name": "Object_0",
      "primitives": [
        {
          "attributes": {
            "NORMAL": 1,
            "POSITION": 0,
            "TEXCOORD_0": 2
          },
          "indices": 3,
          "material": 0,
          "mode": 4
        }
      ]
    }
  ],
  "nodes": [
    {
      "children": [
        1
      ],
      "matrix": [
        1.0,
        0.0,
        0.0,
        0.0,
        0.0,
        2.220446049250313e-16,
        -1.0,
        0.0,
        0.0,
        1.0,
        2.220446049250313e-16,
        0.0,
        0.0,
        0.0,
        0.0,
        1.0
      ],
      "name": "Sketchfab_model"
    },
    {
      "children": [
        2
      ],
      "name": "Brain.obj.cleaner.materialmerger.gles"
    },
    {
      "mesh": 0,
      "name": "Object_2"
    }
  ],
  "scene": 0,
  "scenes": [
    {
      "name": "Sketchfab_Scene",
      "nodes": [
        0
      ]
    }
  ]
}
